<svg width="26" height="26" viewBox="0 0 26 26" fill="none" xmlns="http://www.w3.org/2000/svg">
<g id="arrow-up">
<path id="Vector" d="M19.2816 11.9949L14.023 6.73628C13.923 6.64053 13.805 6.56547 13.6759 6.51542C13.4199 6.41023 13.1327 6.41023 12.8766 6.51542C12.7475 6.56547 12.6296 6.64053 12.5296 6.73628L7.27094 11.9949C7.17288 12.093 7.0951 12.2094 7.04203 12.3375C6.98895 12.4656 6.96164 12.6029 6.96164 12.7416C6.96164 13.0217 7.0729 13.2903 7.27094 13.4883C7.46899 13.6864 7.73759 13.7977 8.01767 13.7977C8.29774 13.7977 8.56635 13.6864 8.76439 13.4883L12.2246 10.0177V18.0002C12.2246 18.2792 12.3354 18.5467 12.5326 18.7439C12.7298 18.9412 12.9974 19.052 13.2763 19.052C13.5552 19.052 13.8227 18.9412 14.02 18.7439C14.2172 18.5467 14.328 18.2792 14.328 18.0002V10.0177L17.7882 13.4883C17.886 13.5869 18.0023 13.6652 18.1304 13.7186C18.2586 13.772 18.3961 13.7994 18.5349 13.7994C18.6737 13.7994 18.8112 13.772 18.9394 13.7186C19.0675 13.6652 19.1839 13.5869 19.2816 13.4883C19.3802 13.3906 19.4585 13.2743 19.5118 13.1461C19.5652 13.0179 19.5927 12.8805 19.5927 12.7416C19.5927 12.6028 19.5652 12.4653 19.5118 12.3372C19.4585 12.209 19.3802 12.0927 19.2816 11.9949Z" fill="#FD8589"/>
</g>
</svg>
