<svg width="30" height="30" viewBox="0 0 30 30" fill="none" xmlns="http://www.w3.org/2000/svg">
<path d="M18.2132 14.5622C18.5521 14.2384 18.8219 13.8492 19.0062 13.4182C19.1905 12.9872 19.2856 12.5233 19.2857 12.0545C19.2857 10.1345 17.7236 8.57241 15.8036 8.57241H15.5357V7.76883C15.5357 7.69779 15.5075 7.62966 15.4573 7.57943C15.407 7.5292 15.3389 7.50098 15.2679 7.50098C15.1968 7.50098 15.1287 7.5292 15.0785 7.57943C15.0282 7.62966 15 7.69779 15 7.76883V8.57241H12.3214V7.76883C12.3214 7.69779 12.2932 7.62966 12.243 7.57943C12.1928 7.5292 12.1246 7.50098 12.0536 7.50098C11.9825 7.50098 11.9144 7.5292 11.8642 7.57943C11.814 7.62966 11.7857 7.69779 11.7857 7.76883V8.57241H10.7143C10.5722 8.57241 10.436 8.62885 10.3355 8.72931C10.235 8.82978 10.1786 8.96604 10.1786 9.10812C10.1786 9.2502 10.235 9.38646 10.3355 9.48693C10.436 9.58739 10.5722 9.64383 10.7143 9.64383H11.25V20.3581H10.7143C10.5722 20.3581 10.436 20.4146 10.3355 20.515C10.235 20.6155 10.1786 20.7518 10.1786 20.8938C10.1786 21.0359 10.235 21.1722 10.3355 21.2726C10.436 21.3731 10.5722 21.4295 10.7143 21.4295H11.7857V22.2331C11.7857 22.3042 11.814 22.3723 11.8642 22.4225C11.9144 22.4728 11.9825 22.501 12.0536 22.501C12.1246 22.501 12.1928 22.4728 12.243 22.4225C12.2932 22.3723 12.3214 22.3042 12.3214 22.2331V21.4295H15V22.2331C15 22.3042 15.0282 22.3723 15.0785 22.4225C15.1287 22.4728 15.1968 22.501 15.2679 22.501C15.3389 22.501 15.407 22.4728 15.4573 22.4225C15.5075 22.3723 15.5357 22.3042 15.5357 22.2331V21.4295H17.4107C19.3307 21.4295 20.8929 19.8674 20.8929 17.9474C20.8929 16.3038 19.747 14.926 18.2132 14.5622ZM18.2143 12.054C18.2143 13.3831 17.1327 14.4647 15.8036 14.4647H12.3214V9.6433H15.8036C17.1327 9.6433 18.2143 10.7249 18.2143 12.054ZM17.4107 20.3576H12.3214V15.5362H17.4107C18.7398 15.5362 19.8214 16.6178 19.8214 17.9469C19.8214 19.276 18.7398 20.3576 17.4107 20.3576Z" fill="#FFB546"/>
<path d="M15 0C6.72911 0 0 6.72911 0 15C0 23.2709 6.72911 30 15 30C23.2709 30 30 23.2709 30 15C30 6.72911 23.2709 0 15 0ZM15 28.9286C7.32 28.9286 1.07143 22.68 1.07143 15C1.07143 7.32 7.32 1.07143 15 1.07143C22.68 1.07143 28.9286 7.32 28.9286 15C28.9286 22.68 22.68 28.9286 15 28.9286Z" fill="url(#paint0_linear_404_721)"/>
<path d="M15 3.48193C8.64914 3.48193 3.48218 8.6489 3.48218 14.9998C3.48218 21.3507 8.64914 26.5176 15 26.5176C21.3509 26.5176 26.5179 21.3507 26.5179 14.9998C26.5179 8.6489 21.3509 3.48193 15 3.48193ZM15 25.9819C8.94432 25.9819 4.01789 21.0555 4.01789 14.9998C4.01789 8.94408 8.94432 4.01765 15 4.01765C21.0557 4.01765 25.9822 8.94408 25.9822 14.9998C25.9822 21.0555 21.0557 25.9819 15 25.9819Z" fill="#FFB546"/>
<defs>
<linearGradient id="paint0_linear_404_721" x1="-3.82753e-09" y1="15" x2="29.9996" y2="15.1117" gradientUnits="userSpaceOnUse">
<stop stop-color="#FFB848"/>
<stop offset="1" stop-color="#FFE362"/>
</linearGradient>
</defs>
</svg>
