<svg width="40" height="40" viewBox="0 0 40 40" fill="none" xmlns="http://www.w3.org/2000/svg">
<g clip-path="url(#clip0_411_1407)">
<path d="M39.4018 24.8365C36.7296 35.5565 25.8685 42.0731 15.1638 39.4008C4.44354 36.7286 -2.07302 25.868 0.599319 15.1634C3.27151 4.44342 14.1168 -2.07315 24.8371 0.599199C35.5418 3.25576 42.0742 14.1164 39.4018 24.8365Z" fill="url(#paint0_linear_411_1407)"/>
<path d="M29.5223 17.5078C29.913 14.8516 27.8973 13.4141 25.1161 12.4609L26.0223 8.85156L23.8348 8.30469L22.9598 11.8203C22.3817 11.6797 21.788 11.5391 21.1942 11.4141L22.0692 7.88281L19.8817 7.33594L18.9911 10.9297C18.5067 10.8203 18.038 10.7109 17.5848 10.6016V10.5859L14.5536 9.83594L13.9755 12.1797C13.9755 12.1797 15.6005 12.5547 15.5692 12.5703C16.4598 12.7891 16.6161 13.3828 16.5848 13.8516L15.5536 17.9609C15.6161 17.9766 15.6942 17.9922 15.788 18.0391C15.7098 18.0234 15.6317 18.0078 15.5536 17.9766L14.1161 23.7266C14.0067 23.9922 13.7255 24.3984 13.1161 24.2422C13.1317 24.2734 11.5223 23.8516 11.5223 23.8516L10.4286 26.3672L13.288 27.0859C13.8192 27.2266 14.3348 27.3516 14.8505 27.4922L13.9442 31.1328L16.1317 31.6797L17.038 28.0703C17.6317 28.2266 18.2255 28.3828 18.788 28.5234L17.8973 32.1172L20.0848 32.6641L20.9911 29.0234C24.7411 29.7266 27.5536 29.4453 28.7255 26.0547C29.6786 23.3359 28.6786 21.7578 26.7098 20.7266C28.163 20.3984 29.2411 19.4453 29.5223 17.5078ZM24.5067 24.5391C23.8348 27.2578 19.2411 25.7891 17.7567 25.4141L18.9598 20.5859C20.4442 20.9609 25.2255 21.6953 24.5067 24.5391ZM25.1942 17.4609C24.5692 19.9453 20.7567 18.6797 19.5223 18.3672L20.6161 13.9922C21.8505 14.3047 25.8348 14.8828 25.1942 17.4609Z" fill="white"/>
</g>
<defs>
<linearGradient id="paint0_linear_411_1407" x1="19.9893" y1="-0.00959999" x2="19.9893" y2="39.996" gradientUnits="userSpaceOnUse">
<stop stop-color="#F9AA4B"/>
<stop offset="1" stop-color="#F7931A"/>
</linearGradient>
<clipPath id="clip0_411_1407">
<rect width="40" height="40" fill="white"/>
</clipPath>
</defs>
</svg>
