<svg width="24" height="39" viewBox="0 0 24 39" fill="none" xmlns="http://www.w3.org/2000/svg">
<path d="M23.7001 19.2261V19.1656C23.7001 19.1354 23.7001 19.1354 23.6699 19.1052V19.0447C23.6699 19.0145 23.6396 19.0145 23.6396 18.9843C23.6396 18.9843 23.6396 18.954 23.6094 18.954L12.3639 0.302297C12.3337 0.272067 12.3035 0.211608 12.2733 0.181378H12.243C12.2128 0.151149 12.1826 0.120919 12.1523 0.120919C12.1523 0.120919 12.1221 0.120919 12.1221 0.0906891C12.0919 0.0604594 12.0617 0.0604594 12.0314 0.0604594H12.0012C11.9407 0 11.9105 0 11.85 0C11.7896 0 11.7594 0 11.6989 0.0302297H11.6687C11.6384 0.0302297 11.6082 0.0604594 11.578 0.0604594C11.578 0.0604594 11.5477 0.0604594 11.5477 0.0906891C11.5175 0.120919 11.4873 0.120919 11.4571 0.151149H11.4268C11.3966 0.181378 11.3664 0.211608 11.3361 0.272067L0.0906895 18.954C0.0906895 18.954 0.0906893 18.9843 0.0604596 18.9843C0.0604596 19.0145 0.0302298 19.0145 0.0302298 19.0447V19.1052C0.0302298 19.1354 0.0302297 19.1354 0 19.1656V19.4075C0 19.4377 1.14867e-07 19.4377 0.0302298 19.4679V19.4982C0.0604595 19.5586 0.0906896 19.5888 0.120919 19.6191L0.151149 19.6493L0.241838 19.74C0.241838 19.74 0.272068 19.74 0.272068 19.7702L11.5477 26.3603H11.578C11.6082 26.3905 11.6384 26.3905 11.6687 26.3905H11.6989C11.7594 26.3905 11.7896 26.4208 11.85 26.4208C11.9105 26.4208 11.9407 26.4208 12.0012 26.3905H12.0314C12.0617 26.3905 12.0919 26.3603 12.1221 26.3603H12.1523L23.3978 19.8005C23.428 19.8005 23.428 19.7702 23.4583 19.7702L23.4885 19.74L23.5489 19.6795L23.5792 19.6493C23.5792 19.6191 23.6094 19.6191 23.6094 19.5888C23.6094 19.5586 23.6396 19.5586 23.6396 19.5284C23.6396 19.4982 23.6396 19.4982 23.6699 19.4679C23.6699 19.4377 23.6699 19.4377 23.7001 19.4075V19.2261ZM11.2455 13.7847L2.14631 17.9262L11.2455 2.78113V13.7847ZM11.2455 15.1149V24.7884L1.9347 19.347L11.2455 15.1149ZM12.4546 15.1149L21.7654 19.347L12.4546 24.7884V15.1149ZM12.4546 13.7847V2.78113L21.5538 17.9262L12.4546 13.7847Z" fill="url(#paint0_linear_404_716)"/>
<path d="M22.763 21.7656L11.8501 28.3254L0.937149 21.7656C0.695311 21.6145 0.362784 21.6749 0.181406 21.8865C2.79825e-05 22.0981 -0.0302014 22.4004 0.120947 22.6423L11.3664 38.4222L11.3966 38.4524C11.4269 38.4826 11.4269 38.5129 11.4571 38.5129L11.4873 38.5431C11.5175 38.5733 11.5478 38.5733 11.5478 38.6035C11.5478 38.6035 11.578 38.6035 11.578 38.6338C11.6082 38.6338 11.6385 38.664 11.6687 38.664H11.6989C11.7292 38.664 11.7896 38.6942 11.8198 38.6942C11.8803 38.6942 11.9105 38.6942 11.9408 38.664H11.971C12.0012 38.664 12.0315 38.6338 12.0617 38.6338C12.0617 38.6338 12.0919 38.6338 12.0919 38.6035C12.1221 38.6035 12.1524 38.5733 12.1524 38.5431L12.1826 38.5129L12.2431 38.4524L12.2733 38.4222L23.5187 22.6423C23.6699 22.4004 23.6699 22.0981 23.4583 21.8865C23.2467 21.6749 23.0351 21.6447 22.763 21.7656ZM11.2455 29.3533V36.1852L2.78116 24.3049L11.2455 29.3533ZM12.4547 36.1852V29.3533L20.919 24.2747L12.4547 36.1852Z" fill="url(#paint1_linear_404_716)"/>
<defs>
<linearGradient id="paint0_linear_404_716" x1="-3.02376e-09" y1="13.2104" x2="23.6998" y2="13.2895" gradientUnits="userSpaceOnUse">
<stop stop-color="#3741D8"/>
<stop offset="1" stop-color="#3BB0F2"/>
</linearGradient>
<linearGradient id="paint1_linear_404_716" x1="0.0241699" y1="30.1879" x2="23.6249" y2="30.3098" gradientUnits="userSpaceOnUse">
<stop stop-color="#3741D8"/>
<stop offset="1" stop-color="#3BB0F2"/>
</linearGradient>
</defs>
</svg>
