<svg width="154" height="79" viewBox="0 0 154 79" fill="none" xmlns="http://www.w3.org/2000/svg">
<g opacity="0.7">
<path d="M3.98114 45.7217H8.34384V67.2386H3.98114V45.7217Z" fill="#394149"/>
<path d="M10.8742 59.8667C10.8713 58.3213 11.3243 56.8096 12.1758 55.5231C13.0274 54.2367 14.2392 53.2332 15.6579 52.6398C17.0766 52.0464 18.6385 51.8896 20.1458 52.1893C21.6532 52.4891 23.0382 53.2318 24.1256 54.3237C25.2132 55.4155 25.9542 56.8073 26.255 58.3228C26.5559 59.8384 26.403 61.4097 25.8156 62.8379C25.2283 64.266 24.233 65.4867 22.9555 66.3457C21.6783 67.2048 20.1763 67.6631 18.6398 67.6631C17.6179 67.6749 16.6041 67.4814 15.6576 67.0938C14.7112 66.7064 13.8511 66.1328 13.1279 65.4066C12.4046 64.6806 11.8327 63.8166 11.4457 62.8652C11.0588 61.9139 10.8644 60.8945 10.8742 59.8667ZM22.0135 59.8667C21.9964 59.1996 21.7841 58.5522 21.4031 58.0059C21.0221 57.4594 20.4894 57.0382 19.8715 56.7947C19.2537 56.5512 18.5782 56.4965 17.9297 56.6372C17.2811 56.7778 16.6882 57.1078 16.225 57.5856C15.7619 58.0635 15.4491 58.6683 15.3258 59.3241C15.2025 59.9798 15.2743 60.6577 15.532 61.2726C15.7898 61.8876 16.222 62.4125 16.7747 62.7817C17.3276 63.1508 17.9763 63.3478 18.6398 63.348C19.0937 63.3609 19.5454 63.2789 19.9662 63.1073C20.3871 62.9357 20.7681 62.6782 21.0852 62.3511C21.4021 62.0239 21.6484 61.6343 21.8081 61.2068C21.9679 60.7791 22.0379 60.3229 22.0135 59.8667Z" fill="#394149"/>
<path d="M43.9433 52.4941V66.5072C43.9433 71.4659 40.0896 73.5577 36.1923 73.5577C34.8218 73.6603 33.4497 73.3814 32.2262 72.7519C31.0026 72.1224 29.975 71.1663 29.2557 69.9886L33.0076 67.8091C33.3052 68.4126 33.7763 68.9125 34.3597 69.2437C34.943 69.5749 35.6119 69.7223 36.2796 69.6667C36.7188 69.7405 37.1691 69.7117 37.5957 69.5825C38.0223 69.4534 38.4136 69.2276 38.7396 68.9223C39.0655 68.617 39.3174 68.2404 39.4759 67.8217C39.6343 67.403 39.695 66.9533 39.6533 66.5072V65.1468C39.1405 65.7816 38.486 66.2858 37.7432 66.6187C37.0005 66.9516 36.1901 67.1039 35.3779 67.0631C33.4032 67.0631 31.5095 66.2741 30.113 64.8696C28.7167 63.4651 27.9322 61.5601 27.9322 59.5738C27.9322 57.5875 28.7167 55.6826 30.113 54.2781C31.5095 52.8737 33.4032 52.0846 35.3779 52.0846C36.1897 52.0472 36.9988 52.2011 37.7411 52.5336C38.4833 52.8664 39.1382 53.3687 39.6533 54.0007V52.538L43.9433 52.4941ZM39.6533 59.5738C39.6824 58.8625 39.4991 58.1586 39.1274 57.5526C38.7555 56.9468 38.212 56.4666 37.5667 56.174C36.9215 55.8812 36.2038 55.7894 35.5062 55.9102C34.8086 56.0309 34.1629 56.3588 33.6521 56.8515C33.1411 57.3444 32.7884 57.9797 32.6394 58.6757C32.4901 59.3716 32.5514 60.0967 32.8152 60.7574C33.079 61.4182 33.5332 61.9844 34.1194 62.3834C34.7057 62.7826 35.3972 62.996 36.105 62.9967C36.5671 63.0295 37.0308 62.9647 37.4663 62.8063C37.902 62.6478 38.2998 62.3995 38.6341 62.077C38.9683 61.7545 39.2318 61.3651 39.4073 60.934C39.5829 60.5029 39.6667 60.0396 39.6533 59.5738Z" fill="#394149"/>
<path d="M46.4592 59.8667C46.4562 58.3213 46.9093 56.8096 47.7608 55.5231C48.6124 54.2367 49.8242 53.2332 51.2429 52.6398C52.6615 52.0464 54.2234 51.8896 55.7307 52.1893C57.2381 52.4891 58.6232 53.2318 59.7107 54.3237C60.7981 55.4155 61.5391 56.8073 61.8401 58.3228C62.1408 59.8384 61.9879 61.4097 61.4005 62.8379C60.8132 64.266 59.8179 65.4867 58.5406 66.3457C57.2632 67.2048 55.7612 67.6631 54.2248 67.6631C53.203 67.6749 52.189 67.4814 51.2425 67.0938C50.2961 66.7064 49.436 66.1328 48.7128 65.4066C47.9896 64.6806 47.4177 63.8166 47.0307 62.8652C46.6436 61.9139 46.4493 60.8945 46.4592 59.8667ZM57.5986 59.8667C57.5813 59.1996 57.369 58.5522 56.988 58.0059C56.607 57.4594 56.0743 57.0382 55.4565 56.7947C54.8388 56.5512 54.1633 56.4965 53.5147 56.6372C52.866 56.7778 52.2731 57.1078 51.8099 57.5856C51.3468 58.0635 51.034 58.6683 50.9107 59.3241C50.7875 59.9798 50.8592 60.6577 51.1169 61.2726C51.3747 61.8876 51.807 62.4125 52.3597 62.7817C52.9125 63.1508 53.5612 63.3478 54.2248 63.348C54.6763 63.3567 55.1247 63.2718 55.5422 63.0983C55.9596 62.9248 56.337 62.6667 56.6509 62.3401C56.9647 62.0135 57.2082 61.6252 57.3664 61.1997C57.5244 60.7742 57.5935 60.3203 57.5695 59.8667H57.5986Z" fill="#394149"/>
<path d="M64.0118 48.545C64.0118 48.0185 64.167 47.5037 64.4578 47.066C64.7487 46.6282 65.162 46.287 65.6456 46.0855C66.1293 45.8839 66.6613 45.8313 67.1748 45.934C67.6882 46.0367 68.1598 46.2902 68.53 46.6625C68.9002 47.0349 69.1521 47.5092 69.2542 48.0256C69.3565 48.542 69.304 49.0774 69.1038 49.5638C68.9034 50.0502 68.5642 50.4661 68.129 50.7585C67.6936 51.051 67.182 51.2071 66.6584 51.2071C65.9577 51.2034 65.2867 50.9216 64.7912 50.4232C64.2956 49.9249 64.0156 49.25 64.0118 48.545ZM64.4625 52.4944H68.8252V67.2389H64.4625V52.4944Z" fill="#394149"/>
<path d="M87.8464 59.8664C87.8992 60.841 87.76 61.8166 87.4366 62.7368C87.113 63.6571 86.6119 64.504 85.9617 65.2286C85.3115 65.9532 84.5254 66.5414 83.6483 66.9592C82.7713 67.3769 81.8208 67.6161 80.8516 67.6629C80.0378 67.7021 79.2253 67.5614 78.4716 67.2505C77.7178 66.9396 77.041 66.4663 76.4889 65.8637V73.1774H72.1262V52.4941H76.4889V53.8837C77.041 53.2812 77.7178 52.8078 78.4716 52.4969C79.2253 52.186 80.0378 52.0454 80.8516 52.0845C81.8196 52.1313 82.7689 52.37 83.6448 52.7869C84.5209 53.2039 85.3065 53.7906 85.9563 54.5137C86.6064 55.2368 87.1078 56.0818 87.4321 57.0004C87.7566 57.9189 87.8974 58.8929 87.8464 59.8664ZM83.4837 59.8664C83.4665 59.1798 83.2493 58.5134 82.8592 57.9497C82.4692 57.3862 81.9234 56.9499 81.2894 56.6952C80.6554 56.4404 79.9608 56.3783 79.2921 56.5166C78.6233 56.6548 78.0095 56.9873 77.5267 57.473C77.0439 57.9586 76.7134 58.5759 76.5759 59.2486C76.4385 59.9213 76.5003 60.6198 76.7535 61.2575C77.0068 61.8953 77.4404 62.4444 78.0009 62.8366C78.5613 63.229 79.2238 63.4474 79.9063 63.4647C80.3826 63.4952 80.8599 63.4227 81.3062 63.2524C81.7523 63.0818 82.157 62.8172 82.4932 62.4765C82.8292 62.1355 83.089 61.7263 83.2549 61.2761C83.4206 60.826 83.4888 60.3453 83.4546 59.8664H83.4837Z" fill="#394149"/>
<path d="M101.429 62.8207C101.429 66.2143 98.5206 67.6623 95.3212 67.6623C94.0432 67.7762 92.7605 67.5026 91.6383 66.8769C90.5163 66.2513 89.6058 65.3022 89.0245 64.1518L92.8346 61.9723C92.9892 62.5044 93.3203 62.9672 93.7726 63.2838C94.2251 63.6005 94.7714 63.752 95.3212 63.7129C96.3829 63.7129 96.9063 63.3765 96.9063 62.7914C96.9063 61.1677 89.6352 62.0308 89.6352 56.9405C89.6352 53.7224 92.3401 52.0987 95.4521 52.0987C96.6005 52.0637 97.7373 52.338 98.7448 52.8936C99.7523 53.4491 100.594 54.2656 101.182 55.2582L97.3573 57.2769C97.1883 56.8906 96.9114 56.5619 96.5603 56.3308C96.2092 56.0996 95.7991 55.976 95.3794 55.975C94.6233 55.975 94.1579 56.2676 94.1579 56.8088C94.2161 58.4909 101.429 57.3646 101.429 62.8207Z" fill="#394149"/>
<path d="M117.484 52.4941V67.2386H113.121V65.8637C112.613 66.4747 111.969 66.9561 111.241 67.2688C110.514 67.5816 109.722 67.7165 108.933 67.6629C106.024 67.6629 103.45 65.5418 103.45 61.5486V52.4941H107.813V60.905C107.775 61.2635 107.816 61.6259 107.934 61.9662C108.053 62.3066 108.245 62.6161 108.497 62.8724C108.749 63.1288 109.054 63.3253 109.391 63.448C109.728 63.5709 110.088 63.6164 110.445 63.5819C112.045 63.5819 113.165 62.6456 113.165 60.554V52.4941H117.484Z" fill="#394149"/>
<path d="M142.7 58.1989V67.2386H138.337V58.5793C138.337 57.1166 137.625 56.151 136.229 56.151C134.833 56.151 133.931 57.1897 133.931 58.9303V67.2386H129.568V58.5793C129.568 57.1166 128.87 56.151 127.459 56.151C126.049 56.151 125.176 57.1897 125.176 58.9303V67.2386H120.814V52.4943H125.176V53.8546C125.632 53.2538 126.23 52.7771 126.916 52.4681C127.602 52.1589 128.354 52.0271 129.103 52.0847C129.855 52.0479 130.604 52.2079 131.277 52.5486C131.95 52.8896 132.523 53.4 132.942 54.0301C133.429 53.3713 134.073 52.8473 134.816 52.5071C135.559 52.167 136.375 52.0215 137.188 52.0847C140.504 52.0847 142.7 54.5128 142.7 58.1989Z" fill="#394149"/>
<path d="M146.423 52.4066C148.222 52.4066 149.68 50.9396 149.68 49.13C149.68 47.3204 148.222 45.8535 146.423 45.8535C144.624 45.8535 143.165 47.3204 143.165 49.13C143.165 50.9396 144.624 52.4066 146.423 52.4066Z" fill="#394149"/>
<path d="M53.3522 34.5605C61.7773 34.5605 68.607 27.6906 68.607 19.2162C68.607 10.7419 61.7773 3.87207 53.3522 3.87207C44.9272 3.87207 38.0973 10.7419 38.0973 19.2162C38.0973 27.6906 44.9272 34.5605 53.3522 34.5605Z" fill="#394149"/>
<path d="M87.4538 34.5605C95.8789 34.5605 102.709 27.6906 102.709 19.2162C102.709 10.7419 95.8789 3.87207 87.4538 3.87207C79.0288 3.87207 72.1989 10.7419 72.1989 19.2162C72.1989 27.6906 79.0288 34.5605 87.4538 34.5605Z" fill="#394149"/>
<path d="M34.5054 3.87207H4.01025V34.5458H34.5054V3.87207Z" fill="#394149"/>
</g>
</svg>
