<svg width="204" height="54" viewBox="0 0 204 54" fill="none" xmlns="http://www.w3.org/2000/svg">
<g opacity="0.7">
<path d="M59.5155 17.3722H64.4764V37.4293H59.5155V17.3722ZM66.4546 29.8847C66.4546 24.9167 69.5455 21.939 74.1819 21.939C78.8182 21.939 81.9091 24.9167 81.9091 29.8847C81.9091 34.8527 78.9264 37.8613 74.1819 37.8613C69.4373 37.8613 66.4546 34.9607 66.4546 29.8847ZM76.9946 29.8847C76.9946 27.1539 75.9282 25.5493 74.2282 25.5493C72.5282 25.5493 71.4773 27.0922 71.4773 29.8847C71.4773 32.6773 72.5282 34.2047 74.2282 34.2047C75.9282 34.2047 77.0255 32.6773 77.0255 29.9001L76.9946 29.8847ZM83.8873 38.463H88.6782C88.8963 38.9779 89.2773 39.4075 89.7628 39.686C90.2484 39.9647 90.8119 40.077 91.3673 40.0059C93.2682 40.0059 94.2573 38.9876 94.2573 37.4756V34.6984H94.2728C93.8634 35.5632 93.2013 36.2839 92.3739 36.7659C91.5463 37.2479 90.592 37.4683 89.6364 37.3984C86.0046 37.3984 83.5937 34.6367 83.5937 29.8847C83.5937 25.1327 85.8964 22.1704 89.7755 22.1704C90.7555 22.1181 91.7277 22.3704 92.5579 22.8926C93.3883 23.4149 94.036 24.1814 94.4119 25.0864H94.2728V22.2939H99.1873V37.3213C99.1873 40.947 95.9728 43.215 91.2437 43.215C86.9473 43.1996 84.1964 41.2402 83.9182 38.4784L83.8873 38.463ZM94.2728 29.8847C94.2728 27.4624 93.1601 25.935 91.3982 25.935C89.6364 25.935 88.5546 27.4779 88.5546 29.8847C88.5546 32.2916 89.621 33.711 91.3982 33.711C93.1755 33.711 94.2728 32.3996 94.2728 29.8847ZM101.15 29.8847C101.15 24.9167 104.241 21.939 108.877 21.939C113.514 21.939 116.605 24.9167 116.605 29.8847C116.605 34.8527 113.606 37.8613 108.877 37.8613C104.148 37.8613 101.181 34.9607 101.181 29.8847H101.15ZM111.69 29.8847C111.69 27.1539 110.608 25.5493 108.924 25.5493C107.239 25.5493 106.173 27.0922 106.173 29.8847C106.173 32.6773 107.224 34.2047 108.924 34.2047C110.624 34.2047 111.721 32.6773 111.721 29.9001L111.69 29.8847ZM118.614 18.6373C118.592 18.1328 118.722 17.6334 118.987 17.2034C119.252 16.7732 119.64 16.4322 120.101 16.2241C120.562 16.0158 121.075 15.9501 121.573 16.0353C122.072 16.1203 122.533 16.3523 122.899 16.7015C123.264 17.0508 123.516 17.501 123.623 17.9945C123.73 18.4881 123.687 19.0023 123.498 19.4709C123.31 19.9396 122.986 20.3414 122.567 20.6245C122.148 20.9076 121.654 21.0591 121.148 21.0596C120.825 21.0678 120.503 21.0117 120.202 20.895C119.901 20.778 119.625 20.6024 119.392 20.3786C119.16 20.1547 118.973 19.8869 118.845 19.5905C118.717 19.2942 118.649 18.9755 118.645 18.6527L118.614 18.6373ZM118.614 22.2784H123.636V37.491H118.691L118.614 22.2784ZM141.703 29.8847C141.703 34.8373 139.477 37.707 135.691 37.707C134.722 37.7667 133.757 37.5279 132.928 37.0231C132.099 36.5181 131.445 35.7713 131.055 34.8836H130.962V42.3819H126.001V22.3247H130.931V25.0401H131.024C131.401 24.135 132.048 23.3677 132.878 22.8431C133.708 22.3186 134.679 22.0621 135.66 22.1087C139.555 22.0779 141.796 24.9321 141.796 29.9001L141.703 29.8847ZM136.649 29.8847C136.649 27.4779 135.521 25.9196 133.775 25.9196C132.028 25.9196 130.931 27.4624 130.916 29.8847C130.9 32.307 132.028 33.8344 133.775 33.8344C135.521 33.8344 136.742 32.3996 136.742 29.9001L136.649 29.8847ZM150.172 21.9236C154.329 21.9236 156.91 23.883 156.941 27.0304H152.413C152.413 25.935 151.501 25.2562 150.141 25.2562C148.781 25.2562 148.132 25.7807 148.132 26.5676C148.132 27.3544 148.704 27.6013 149.847 27.8327L153.031 28.4807C156.122 29.1287 157.358 30.363 157.358 32.6619C157.358 35.7476 154.499 37.8459 150.249 37.8459C145.999 37.8459 143.233 35.8093 143.032 32.7082H147.838C147.977 33.8344 148.874 34.4979 150.326 34.4979C151.779 34.4979 152.459 34.035 152.459 33.2173C152.459 32.3996 151.996 32.2607 150.806 32.0139L147.931 31.4122C144.948 30.7796 143.387 29.2213 143.387 26.8916C143.48 23.8676 146.076 21.939 150.265 21.939L150.172 21.9236ZM173.972 37.4756H169.166V34.6213H169.073C168.804 35.5734 168.218 36.4055 167.411 36.9803C166.605 37.5553 165.626 37.8388 164.637 37.7842C163.891 37.8084 163.146 37.6748 162.455 37.3918C161.764 37.109 161.14 36.6833 160.625 36.1429C160.109 35.6022 159.715 34.959 159.466 34.2555C159.217 33.5519 159.12 32.8037 159.182 32.0602V22.2939H164.143V30.9956C164.143 32.7853 165.086 33.7573 166.631 33.7573C166.994 33.7545 167.351 33.6741 167.68 33.5217C168.01 33.3691 168.302 33.1479 168.537 32.8729C168.773 32.598 168.948 32.2757 169.048 31.9279C169.147 31.58 169.172 31.2148 169.119 30.8567V22.2939H174.065L173.972 37.4756ZM176.367 22.2784H181.189V25.2099H181.297C181.563 24.2707 182.135 23.4464 182.92 22.8656C183.707 22.2851 184.663 21.9808 185.64 22.0007C186.621 21.9156 187.6 22.1988 188.382 22.7951C189.165 23.3915 189.697 24.2581 189.875 25.2253H190.091C190.4 24.2528 191.021 23.4095 191.861 22.8265C192.698 22.2433 193.707 21.953 194.727 22.0007C195.406 21.975 196.083 22.0925 196.712 22.3457C197.342 22.5987 197.911 22.9818 198.382 23.4698C198.854 23.9577 199.215 24.5395 199.446 25.177C199.677 25.8145 199.77 26.4934 199.719 27.1693V37.491H194.727V28.4344C194.727 26.8916 194.001 26.0276 192.595 26.0276C192.282 26.0225 191.973 26.0848 191.687 26.2101C191.402 26.3355 191.148 26.5211 190.941 26.7541C190.734 26.9872 190.579 27.262 190.488 27.5601C190.399 27.8582 190.374 28.1721 190.416 28.4807V37.491H185.686V28.3882C185.686 26.8453 184.929 26.0276 183.569 26.0276C183.254 26.0251 182.942 26.0899 182.654 26.2177C182.365 26.3456 182.109 26.5333 181.898 26.7686C181.69 27.0039 181.534 27.2812 181.441 27.5817C181.347 27.8824 181.319 28.1995 181.359 28.5116V37.491H176.398L176.367 22.2784Z" fill="#394149"/>
<path d="M49.7018 18.6836C49.7019 15.6129 48.7731 12.6136 47.0369 10.0788C45.3008 7.54401 42.8381 5.59175 39.9717 4.47781C37.1054 3.36385 33.9687 3.14014 30.9729 3.83595C27.9769 4.53176 25.2613 6.11467 23.1818 8.37733H3.89453V49.0162H44.6172V30.0236C46.2155 28.5965 47.4946 26.8489 48.3707 24.8949C49.2468 22.9408 49.7004 20.8245 49.7018 18.6836ZM41.8663 18.6836C41.8694 20.155 41.4351 21.5944 40.6185 22.8194C39.8018 24.0443 38.6396 24.9999 37.2786 25.5651C35.9177 26.1304 34.4195 26.2799 32.9735 25.9946C31.5275 25.7095 30.1988 25.0024 29.1554 23.963C28.1121 22.9235 27.4012 21.5985 27.1125 20.1555C26.8238 18.7126 26.9705 17.2165 27.5338 15.8568C28.0971 14.497 29.0519 13.3347 30.2771 12.5168C31.5025 11.699 32.9433 11.2625 34.4172 11.2625C36.3902 11.2625 38.2826 12.0439 39.679 13.4351C41.0757 14.8264 41.8623 16.714 41.8663 18.6836ZM36.7818 41.1939H11.73V16.1996H19.3645C19.2171 17.0196 19.1395 17.8506 19.1327 18.6836C19.1369 22.7293 20.7485 26.608 23.614 29.4688C26.4795 32.3294 30.3647 33.9385 34.4172 33.9425C35.2096 33.9383 36.0002 33.8712 36.7818 33.7419V41.1939Z" fill="#394149"/>
</g>
</svg>
