<svg width="217" height="46" viewBox="0 0 217 46" fill="none" xmlns="http://www.w3.org/2000/svg">
<g opacity="0.7">
<path d="M34.7495 20.5021C34.162 21.0867 33.7122 21.7924 33.432 22.5685C33.1517 23.3449 33.048 24.1727 33.1282 24.9932L33.1003 24.9656C33.1827 25.9314 33.051 26.9033 32.7145 27.8136C32.378 28.7238 31.8448 29.5504 31.1521 30.2358C30.4592 30.9211 29.6236 31.4487 28.7034 31.7814C27.7833 32.1143 26.8007 32.2446 25.8246 32.1631L25.8525 32.1907C24.6847 32.0832 23.5118 32.3345 22.4936 32.9106C21.4756 33.4866 20.6618 34.3593 20.1635 35.4096C19.6652 36.4599 19.5063 37.6366 19.7087 38.7796C19.9113 39.9223 20.4651 40.9756 21.2948 41.7956C22.1245 42.6156 23.1897 43.1626 24.3451 43.3618C25.5006 43.5611 26.6899 43.4029 27.7512 42.909C28.8125 42.4149 29.6938 41.6093 30.2752 40.6016C30.8566 39.5939 31.1097 38.4335 31 37.2783L31.0295 37.3059C30.947 36.3402 31.0786 35.3682 31.4151 34.4579C31.7516 33.5477 32.285 32.721 32.9776 32.0356C33.6705 31.3504 34.5061 30.8228 35.4262 30.49C36.3464 30.1572 37.3288 30.0268 38.3052 30.1084L38.2757 30.0808C39.2296 30.1656 40.1898 30.0109 41.0673 29.6309C41.9446 29.251 42.7109 28.658 43.2949 27.9071C43.879 27.1563 44.2621 26.2715 44.4084 25.3353C44.5549 24.3989 44.4601 23.4412 44.1327 22.5506C43.8053 21.6602 43.256 20.8659 42.5357 20.2414C41.8154 19.6169 40.9474 19.1823 40.0122 18.9781C39.0769 18.7738 38.1046 18.8064 37.1854 19.0727C36.2663 19.3392 35.4301 19.8308 34.7541 20.5021H34.7495Z" fill="#394149"/>
<path d="M23.3151 28.575L23.2857 28.5474C24.1154 28.63 24.9533 28.5293 25.739 28.2524C26.5245 27.9754 27.2382 27.5294 27.8281 26.9463C28.4179 26.3631 28.8695 25.6575 29.1499 24.8806C29.4305 24.1036 29.5329 23.2749 29.45 22.4539L29.4795 22.4815C29.397 21.5157 29.5287 20.5438 29.8651 19.6335C30.2016 18.7233 30.735 17.8967 31.4277 17.2113C32.1205 16.526 32.9561 15.9984 33.8762 15.6657C34.7964 15.3327 35.7788 15.2025 36.7552 15.284L36.7257 15.2564C37.8936 15.365 39.0668 15.1144 40.0855 14.539C41.1043 13.9636 41.9187 13.0913 42.4178 12.0412C42.9169 10.9911 43.0764 9.8142 42.8746 8.67109C42.6727 7.52797 42.1194 6.4743 41.2898 5.65375C40.4604 4.83322 39.3953 4.28576 38.2397 4.08608C37.0842 3.8864 35.8946 4.04419 34.833 4.53796C33.7714 5.03171 32.8898 5.8374 32.3081 6.84512C31.7263 7.85283 31.4731 9.01351 31.5828 10.1688L31.5549 10.1397C31.6375 11.1055 31.5061 12.0776 31.1697 12.988C30.8334 13.8983 30.3 14.7251 29.6073 15.4105C28.9145 16.0958 28.0787 16.6234 27.1585 16.9561C26.2381 17.2889 25.2556 17.4189 24.2792 17.3372L24.3071 17.3663C23.4774 17.2837 22.6393 17.3844 21.8538 17.6613C21.0682 17.9381 20.3546 18.3843 19.7647 18.9674C19.1747 19.5505 18.7232 20.2562 18.4427 21.0331C18.1623 21.8101 18.0598 22.6388 18.1428 23.4598L18.1149 23.4322C18.197 24.3979 18.0651 25.3697 17.7286 26.2799C17.3919 27.1899 16.8587 28.0165 16.166 28.7018C15.4733 29.387 14.6378 29.9145 13.7178 30.2475C12.7977 30.5804 11.8154 30.7109 10.8392 30.6296L10.8671 30.6572C9.69916 30.5487 8.52586 30.7992 7.50718 31.3747C6.48852 31.9502 5.67408 32.8223 5.17496 33.8725C4.67583 34.9227 4.5163 36.0995 4.71816 37.2426C4.92002 38.3857 5.47343 39.4394 6.30288 40.2599C7.13235 41.0805 8.19748 41.6279 9.35302 41.8276C10.5086 42.0272 11.6982 41.8694 12.7598 41.3757C13.8213 40.882 14.7031 40.0764 15.2847 39.0687C15.8664 38.0608 16.1197 36.9002 16.01 35.7448L16.0394 35.7724C15.9569 34.8066 16.0887 33.8348 16.4252 32.9244C16.7616 32.0142 17.2949 31.1876 17.9876 30.5022C18.6805 29.817 19.5161 29.2894 20.4361 28.9566C21.3564 28.6237 22.3388 28.4934 23.3151 28.575Z" fill="#394149"/>
<path d="M12.927 25.4978C13.5145 24.9133 13.9643 24.2076 14.2442 23.4313C14.5242 22.655 14.6275 21.827 14.5467 21.0066L14.5762 21.0342C14.4937 20.0682 14.6254 19.096 14.9621 18.1855C15.2988 17.275 15.8323 16.4482 16.5255 15.7628C17.2186 15.0774 18.0545 14.55 18.9751 14.2173C19.8956 13.8846 20.8785 13.7548 21.855 13.8368L21.8255 13.8092C22.993 13.9174 24.1659 13.6667 25.1841 13.0913C26.2023 12.516 27.0162 11.6439 27.5151 10.5941C28.0139 9.54431 28.1733 8.36786 27.9714 7.22518C27.7696 6.08249 27.2163 5.02921 26.3872 4.20897C25.5581 3.38873 24.4932 2.84145 23.3382 2.64178C22.1831 2.4421 20.9938 2.59975 19.9327 3.09321C18.8714 3.58667 17.9899 4.39193 17.4084 5.39918C16.8266 6.40642 16.5732 7.56664 16.6826 8.72157L16.6547 8.69397C16.7372 9.65974 16.6055 10.6317 16.2689 11.5419C15.9324 12.4522 15.3993 13.2788 14.7065 13.9641C14.0137 14.6495 13.1781 15.177 12.2579 15.5098C11.3378 15.8427 10.3553 15.973 9.37904 15.8914L9.40694 15.919C8.45303 15.8344 7.49294 15.9894 6.61567 16.3695C5.7384 16.7496 4.97231 17.3427 4.38841 18.0938C3.80451 18.8446 3.42169 19.7294 3.27541 20.6656C3.12913 21.602 3.22413 22.5598 3.5516 23.45C3.87907 24.3404 4.42844 25.1345 5.14877 25.7589C5.8691 26.3834 6.7371 26.8178 7.67234 27.0221C8.60756 27.2261 9.57977 27.1935 10.4989 26.9271C11.418 26.6607 12.2542 26.1691 12.9301 25.4978H12.927Z" fill="#394149"/>
<path d="M60.9413 10.2041H65.5448V32.3654H60.9413V10.2041Z" fill="#394149"/>
<path d="M68.152 24.7768C68.1456 23.1843 68.6171 21.6255 69.5068 20.2982C70.3965 18.971 71.6644 17.9348 73.1499 17.321C74.6354 16.707 76.2716 16.5431 77.8514 16.8499C79.4311 17.1567 80.8833 17.9203 82.024 19.0443C83.1646 20.1681 83.9424 21.6016 84.2589 23.1631C84.5754 24.7247 84.4163 26.344 83.8017 27.816C83.1871 29.2879 82.1447 30.5464 80.8066 31.4318C79.4683 32.3173 77.8948 32.79 76.2848 32.79C75.2162 32.8021 74.1559 32.6032 73.1657 32.2052C72.1756 31.8071 71.2757 31.2179 70.5185 30.4719C69.7612 29.7258 69.1619 28.8378 68.7557 27.86C68.3493 26.8822 68.144 25.834 68.152 24.7768ZM79.8142 24.7768C79.7949 24.0903 79.5716 23.4247 79.1721 22.8631C78.7726 22.3015 78.2146 21.8688 77.5679 21.6194C76.9211 21.3697 76.2144 21.3142 75.536 21.4599C74.8576 21.6056 74.2376 21.9457 73.7535 22.438C73.2696 22.9302 72.9428 23.5527 72.8147 24.2277C72.6863 24.9025 72.7618 25.5999 73.032 26.2326C73.3021 26.8652 73.7547 27.4049 74.3332 27.7844C74.9118 28.1639 75.5907 28.3663 76.2848 28.3663C76.7602 28.3789 77.2331 28.2938 77.6738 28.1166C78.1143 27.9393 78.5129 27.6737 78.8445 27.3365C79.176 26.9992 79.4335 26.5976 79.6003 26.1571C79.7672 25.7166 79.84 25.2466 79.8142 24.7768Z" fill="#394149"/>
<path d="M102.765 17.1869V31.6002C102.765 36.7001 98.7443 38.856 94.6631 38.856C93.2263 38.9624 91.7874 38.6752 90.5045 38.0261C89.2217 37.3769 88.1443 36.3908 87.3905 35.176L91.3182 32.9296C91.6351 33.5629 92.1399 34.0853 92.765 34.4271C93.3903 34.7687 94.1061 34.9135 94.8166 34.8417C95.2707 34.904 95.7333 34.8644 96.1699 34.7259C96.6064 34.5875 97.006 34.3537 97.3389 34.0419C97.6718 33.73 97.9296 33.3482 98.0933 32.9244C98.2568 32.5008 98.3219 32.0461 98.2839 31.5941V30.2064C97.7449 30.8589 97.0588 31.3773 96.2806 31.72C95.5023 32.0627 94.6538 32.2202 93.8029 32.1798C91.7783 32.1167 89.858 31.2767 88.4484 29.8375C87.0388 28.3985 86.2507 26.4732 86.2507 24.4695C86.2507 22.4657 87.0388 20.5405 88.4484 19.1014C89.858 17.6622 91.7783 16.8223 93.8029 16.7591C94.6538 16.7188 95.5023 16.8763 96.2806 17.219C97.0588 17.5617 97.7449 18.0801 98.2839 18.7325V17.1838L102.765 17.1869ZM98.2855 24.4718C98.3165 23.7379 98.1246 23.0116 97.7348 22.3864C97.345 21.7611 96.7749 21.2657 96.098 20.9638C95.4211 20.6617 94.6684 20.5671 93.9367 20.692C93.2049 20.8168 92.5277 21.1553 91.992 21.6642C91.4565 22.173 91.0871 22.8287 90.9314 23.5469C90.7757 24.2651 90.8408 25.013 91.1186 25.6943C91.3962 26.3756 91.8736 26.9592 92.4893 27.3698C93.1049 27.7804 93.8308 27.9994 94.5732 27.9984C95.057 28.0319 95.5423 27.9647 95.9982 27.8013C96.454 27.6378 96.8702 27.3816 97.2199 27.0495C97.5695 26.7172 97.8451 26.3162 98.0287 25.8722C98.2122 25.4283 98.2998 24.9512 98.2855 24.4718Z" fill="#394149"/>
<path d="M105.372 24.7768C105.366 23.1843 105.837 21.6255 106.727 20.2982C107.617 18.971 108.884 17.9348 110.37 17.321C111.856 16.707 113.492 16.5431 115.071 16.8499C116.651 17.1567 118.103 17.9203 119.244 19.0443C120.385 20.1681 121.163 21.6016 121.479 23.1631C121.796 24.7247 121.636 26.344 121.022 27.816C120.407 29.2879 119.365 30.5464 118.027 31.4318C116.688 32.3173 115.115 32.79 113.505 32.79C112.436 32.8021 111.376 32.6032 110.386 32.2052C109.396 31.8071 108.496 31.2179 107.739 30.4719C106.981 29.7258 106.382 28.8378 105.976 27.86C105.569 26.8822 105.364 25.834 105.372 24.7768ZM117.034 24.7768C117.015 24.0903 116.792 23.4247 116.392 22.8631C115.993 22.3015 115.435 21.8688 114.788 21.6194C114.141 21.3697 113.434 21.3142 112.756 21.4599C112.078 21.6056 111.458 21.9457 110.974 22.438C110.49 22.9302 110.163 23.5527 110.035 24.2277C109.906 24.9025 109.982 25.5999 110.252 26.2326C110.522 26.8652 110.975 27.4049 111.553 27.7844C112.132 28.1639 112.811 28.3663 113.505 28.3663C113.98 28.3789 114.453 28.2938 114.894 28.1166C115.334 27.9393 115.733 27.6737 116.065 27.3365C116.396 26.9992 116.654 26.5976 116.82 26.1571C116.987 25.7166 117.06 25.2466 117.034 24.7768Z" fill="#394149"/>
<path d="M123.785 13.1191C123.785 12.5787 123.947 12.0504 124.25 11.6011C124.554 11.1517 124.985 10.8015 125.49 10.5947C125.994 10.3879 126.55 10.3338 127.086 10.4392C127.621 10.5447 128.114 10.8049 128.5 11.187C128.886 11.5692 129.149 12.056 129.256 12.5861C129.362 13.1161 129.308 13.6655 129.099 14.1648C128.889 14.664 128.535 15.0908 128.081 15.3911C127.627 15.6913 127.093 15.8515 126.547 15.8515C125.816 15.8443 125.118 15.5542 124.602 15.0433C124.085 14.5324 123.792 13.8416 123.785 13.1191ZM124.25 17.1871H128.855V32.3671H124.243L124.25 17.1871Z" fill="#394149"/>
<path d="M148.732 24.7771C148.785 25.7804 148.637 26.7841 148.297 27.7306C147.957 28.6771 147.431 29.5478 146.749 30.2925C146.067 31.0371 145.244 31.6412 144.325 32.0699C143.407 32.4985 142.412 32.7434 141.397 32.7903C140.544 32.8363 139.691 32.694 138.901 32.3737C138.11 32.0532 137.402 31.5629 136.826 30.938V38.4376H132.223V17.1871H136.826V18.6131C137.402 17.9887 138.111 17.4987 138.901 17.1787C139.692 16.8585 140.544 16.7164 141.397 16.7624C142.412 16.8091 143.407 17.0538 144.326 17.4826C145.244 17.9113 146.068 18.5154 146.75 19.2603C147.432 20.0052 147.958 20.8761 148.298 21.823C148.638 22.7697 148.785 23.7737 148.732 24.7771ZM144.128 24.7771C144.11 24.0667 143.881 23.3773 143.469 22.7951C143.057 22.2131 142.48 21.7641 141.812 21.5047C141.143 21.2451 140.411 21.1863 139.709 21.336C139.007 21.4855 138.365 21.8366 137.863 22.3454C137.362 22.8543 137.023 23.498 136.889 24.1964C136.756 24.8947 136.834 25.6163 137.113 26.2712C137.392 26.9261 137.86 27.4848 138.459 27.8778C139.057 28.2706 139.76 28.4802 140.478 28.4801C140.971 28.5019 141.464 28.4201 141.923 28.2404C142.382 28.0609 142.797 27.7872 143.142 27.4376C143.486 27.0878 143.752 26.6701 143.922 26.2117C144.092 25.7532 144.163 25.2642 144.128 24.7771Z" fill="#394149"/>
<path d="M162.938 27.8113C162.938 31.3027 159.87 32.79 156.556 32.79C155.217 32.91 153.873 32.63 152.696 31.9858C151.52 31.3418 150.566 30.3635 149.958 29.1775L153.946 26.9312C154.107 27.4793 154.454 27.9564 154.928 28.2822C155.401 28.6082 155.975 28.7635 156.55 28.7221C157.654 28.7221 158.207 28.3878 158.207 27.7822C158.207 26.1108 150.657 26.9925 150.657 21.7408C150.657 18.4304 153.481 16.7621 156.672 16.7621C157.872 16.7245 159.059 17.0061 160.112 17.5772C161.164 18.1486 162.043 18.9885 162.655 20.0097L158.728 22.1042C158.556 21.7067 158.269 21.3679 157.903 21.1304C157.537 20.8929 157.11 20.7672 156.672 20.7687C155.874 20.7687 155.383 21.0754 155.383 21.6182C155.389 23.3493 162.938 22.1947 162.938 27.8113Z" fill="#394149"/>
<path d="M179.754 17.1875V32.3675H175.15V30.94C174.618 31.5699 173.944 32.0662 173.182 32.3882C172.419 32.7102 171.591 32.8487 170.764 32.7922C167.664 32.7922 165.029 30.6072 165.029 26.5056V17.1875H169.632V25.8386C169.593 26.2001 169.635 26.5657 169.755 26.9096C169.872 27.2537 170.066 27.568 170.32 27.8307C170.574 28.0933 170.883 28.298 171.225 28.4307C171.566 28.5633 171.934 28.6206 172.301 28.5986C173.989 28.5986 175.155 27.628 175.155 25.4721V17.1921L179.754 17.1875Z" fill="#394149"/>
<path d="M206.15 23.0463V32.3659H201.546V23.4404C201.546 21.9224 200.81 20.9518 199.338 20.9518C197.803 20.9518 196.943 22.0144 196.943 23.8053V32.3659H192.341V23.4404C192.341 21.9224 191.605 20.9518 190.131 20.9518C188.596 20.9518 187.738 22.0144 187.738 23.8053V32.3659H183.134V17.1859H187.738V18.5812C188.215 17.9622 188.841 17.4713 189.559 17.1534C190.278 16.8354 191.065 16.7006 191.85 16.7612C192.637 16.723 193.421 16.8875 194.127 17.2385C194.83 17.5893 195.43 18.115 195.869 18.7637C196.379 18.0849 197.055 17.5452 197.833 17.195C198.611 16.8447 199.466 16.6956 200.319 16.7612C203.842 16.7627 206.15 19.2513 206.15 23.0463Z" fill="#394149"/>
<path d="M210.044 17.0939C211.93 17.0939 213.46 15.5808 213.46 13.7144C213.46 11.848 211.93 10.335 210.044 10.335C208.157 10.335 206.627 11.848 206.627 13.7144C206.627 15.5808 208.157 17.0939 210.044 17.0939Z" fill="#394149"/>
</g>
</svg>
