<svg width="204" height="54" viewBox="0 0 204 54" fill="none" xmlns="http://www.w3.org/2000/svg">
<g opacity="0.7">
<path d="M47.1673 18.9004C47.7237 18.9004 47.9091 19.101 47.9091 19.641V31.8604H54.1991C54.74 31.8604 54.9409 32.061 54.9409 32.601V33.681C54.9409 34.221 54.74 34.4215 54.1991 34.4215H45.9155C45.3746 34.4215 45.1582 34.221 45.1582 33.681V19.641C45.1582 19.101 45.3746 18.9004 45.9155 18.9004H47.1673Z" fill="#394149"/>
<path d="M60.4272 24.2847C60.4272 20.7207 62.6836 18.5762 66.6091 18.5762C70.5345 18.5762 72.7909 20.7207 72.7909 24.2847V29.0367C72.7909 32.6007 70.5191 34.7453 66.6091 34.7453C62.6991 34.7453 60.4272 32.6007 60.4272 29.0367V24.2847ZM70.1945 24.2847C70.1945 22.279 68.9427 21.199 66.6863 21.199C64.43 21.199 63.1936 22.2945 63.1936 24.2847V29.0676C63.1936 31.0887 64.43 32.1533 66.6863 32.1533C68.9427 32.1533 70.1945 31.0425 70.1945 29.0676V24.2847Z" fill="#394149"/>
<path d="M91.1972 25.9204C91.7999 25.9204 91.939 26.1209 91.939 26.6609V29.5924C91.9554 30.2828 91.8168 30.9683 91.5333 31.5982C91.2498 32.2283 90.8288 32.787 90.3008 33.2335C88.9898 34.2757 87.3368 34.7927 85.6645 34.6838C81.6618 34.6838 79.4827 32.5392 79.4827 28.9752V24.1924C79.4827 20.6746 81.739 18.5146 85.6645 18.5146C88.7554 18.5146 90.7645 19.7335 91.6145 22.1712C91.6621 22.2629 91.6876 22.3642 91.689 22.4673C91.6904 22.5705 91.6676 22.6726 91.6227 22.7654C91.5777 22.8583 91.5116 22.9394 91.4296 23.0024C91.3477 23.0652 91.2522 23.1082 91.1508 23.1278L89.9454 23.5444C89.4199 23.7295 89.2036 23.6215 89.0181 23.0815C88.762 22.4226 88.2933 21.8674 87.6859 21.5042C87.0786 21.1411 86.3674 20.9902 85.6645 21.0758C83.3927 21.0758 82.1563 22.1712 82.1563 24.1615V29.0678C82.1563 31.0889 83.4081 32.1535 85.6645 32.1535C87.9208 32.1535 89.3118 31.1198 89.3118 29.6078V28.4661H85.9581C85.4018 28.4661 85.2008 28.2501 85.2008 27.7101V26.6609C85.2008 26.1209 85.4018 25.9204 85.9581 25.9204H91.1972Z" fill="#394149"/>
<path d="M98.3218 24.2847C98.3218 20.7207 100.578 18.5762 104.504 18.5762C108.429 18.5762 110.685 20.7207 110.685 24.2847V29.0367C110.685 32.6007 108.414 34.7453 104.504 34.7453C100.594 34.7453 98.3218 32.6007 98.3218 29.0367V24.2847ZM108.074 24.2847C108.074 22.279 106.822 21.199 104.581 21.199C102.34 21.199 101.073 22.2945 101.073 24.2847V29.0676C101.073 31.0887 102.325 32.1533 104.581 32.1533C106.837 32.1533 108.074 31.0425 108.074 29.0676V24.2847Z" fill="#394149"/>
<path d="M117.965 19.3478C117.965 19.0084 118.073 18.9004 118.413 18.9004H119.124C119.464 18.9004 119.541 19.0084 119.541 19.3478V33.9741C119.541 34.3135 119.541 34.4215 119.124 34.4215H118.413C118.073 34.4215 117.965 34.3135 117.965 33.9741V19.3478Z" fill="#394149"/>
<path d="M133.62 18.9004C134.907 18.9004 136.141 19.4108 137.051 20.3194C137.961 21.2278 138.473 22.4601 138.473 23.745C138.473 25.0299 137.961 26.2621 137.051 27.1706C136.141 28.0792 134.907 28.5895 133.62 28.5895H128.984V33.9741C128.984 34.3135 128.906 34.4215 128.582 34.4215H127.855C127.531 34.4215 127.407 34.3135 127.407 33.9741V19.3478C127.407 19.0084 127.531 18.9004 127.855 18.9004H133.62ZM133.481 27.0621C133.923 27.0621 134.361 26.9751 134.77 26.8061C135.179 26.637 135.55 26.3893 135.863 26.077C136.176 25.7647 136.424 25.3938 136.594 24.9859C136.763 24.5778 136.85 24.1404 136.85 23.6987C136.85 23.257 136.763 22.8196 136.594 22.4115C136.424 22.0035 136.176 21.6326 135.863 21.3204C135.55 21.0081 135.179 20.7603 134.77 20.5912C134.361 20.4223 133.923 20.3352 133.481 20.3352H128.844V27.0621H133.481Z" fill="#394149"/>
<path d="M150.543 18.5912C151.736 18.4598 152.94 18.716 153.976 19.3219C155.011 19.928 155.824 20.8512 156.292 21.9547C156.415 22.2015 156.292 22.4021 156.045 22.5255L155.365 22.8341C155.086 22.9421 154.978 22.9267 154.808 22.6335C154.458 21.8146 153.856 21.128 153.089 20.6732C152.322 20.2183 151.431 20.0187 150.543 20.1032C147.931 20.1032 146.509 21.1369 146.509 22.9884C146.494 23.5541 146.684 24.1065 147.045 24.5431C147.406 24.9797 147.913 25.2715 148.472 25.3644C149.303 25.635 150.165 25.8008 151.037 25.8581C152.093 25.9142 153.135 26.1275 154.128 26.4907C154.89 26.7312 155.545 27.2258 155.984 27.8917C156.423 28.5576 156.619 29.354 156.539 30.1472C156.539 33.0324 154.437 34.7758 150.574 34.7758C149.306 34.9205 148.028 34.6274 146.951 33.9451C145.874 33.263 145.063 32.2329 144.655 31.0267C144.627 30.9717 144.613 30.9114 144.611 30.85C144.61 30.7886 144.623 30.7278 144.648 30.6718C144.673 30.6158 144.71 30.566 144.757 30.526C144.803 30.4859 144.858 30.4567 144.917 30.4404L145.597 30.1935C145.651 30.1716 145.708 30.1611 145.766 30.1627C145.824 30.1642 145.881 30.1778 145.933 30.2025C145.986 30.2271 146.032 30.2623 146.07 30.306C146.108 30.3497 146.137 30.4006 146.154 30.4558C146.499 31.3274 147.114 32.0664 147.909 32.5658C148.704 33.0651 149.637 33.2988 150.574 33.2329C153.495 33.2329 154.932 32.2147 154.932 30.1472C154.96 29.6038 154.793 29.0683 154.461 28.636C154.13 28.2038 153.656 27.9028 153.124 27.7867C152.324 27.5486 151.499 27.4036 150.666 27.3547L148.997 27.1387C148.475 27.028 147.959 26.8889 147.452 26.7221C146.951 26.571 146.484 26.3248 146.076 25.9969C145.666 25.6264 145.343 25.1703 145.129 24.661C144.916 24.1517 144.817 23.6018 144.84 23.0501C144.948 20.3501 146.973 18.5912 150.543 18.5912Z" fill="#394149"/>
<path d="M164.869 29.145C164.934 30.2361 165.415 31.261 166.212 32.0104C167.01 32.7597 168.064 33.1769 169.158 33.1769C170.252 33.1769 171.306 32.7597 172.103 32.0104C172.901 31.261 173.38 30.2361 173.446 29.145V19.3478C173.446 19.0084 173.555 18.9004 173.895 18.9004H174.606C174.946 18.9004 175.054 19.0084 175.054 19.3478V29.1295C175.054 32.6318 172.983 34.7455 169.166 34.7455C165.348 34.7455 163.277 32.6318 163.277 29.1295V19.3478C163.277 19.0084 163.386 18.9004 163.71 18.9004H164.436C164.761 18.9004 164.869 19.0084 164.869 19.3478V29.145Z" fill="#394149"/>
<path d="M196.381 18.9001C196.721 18.9001 196.829 19.0081 196.829 19.3475V33.9738C196.829 34.3132 196.721 34.4212 196.381 34.4212H195.732C195.407 34.4212 195.299 34.3132 195.299 33.9738V25.0715C195.299 23.7763 195.387 22.4825 195.562 21.199H195.469C194.987 22.3726 194.423 23.5118 193.785 24.6087L190.462 30.4561C190.422 30.5576 190.351 30.6443 190.259 30.705C190.168 30.7654 190.062 30.7971 189.952 30.7955H189.519C189.408 30.7961 189.3 30.7642 189.205 30.704C189.113 30.6437 189.038 30.5576 188.994 30.4561L185.625 24.547C185.026 23.4659 184.51 22.3416 184.079 21.1835H183.986C184.144 22.4787 184.227 23.7822 184.234 25.087V33.9738C184.234 34.3132 184.125 34.4212 183.785 34.4212H183.183C182.843 34.4212 182.734 34.3132 182.734 33.9738V19.3475C182.734 19.0081 182.843 18.9001 183.183 18.9001H183.739C183.866 18.8884 183.994 18.916 184.104 18.9796C184.215 19.0431 184.303 19.1394 184.357 19.2549L189.766 28.8515L195.144 19.3475C195.314 19.0235 195.407 18.9772 195.747 18.9772L196.381 18.9001Z" fill="#394149"/>
<path d="M19.6737 32.0763V43.2312C19.6737 43.6589 19.5035 44.069 19.2006 44.3712C18.8979 44.6736 18.4871 44.8435 18.0587 44.8435C17.6305 44.8435 17.2197 44.6736 16.9168 44.3712C16.6139 44.069 16.4437 43.6589 16.4437 43.2312V32.0918C16.8934 32.4196 17.4325 32.6026 17.9892 32.6163C18.5959 32.6336 19.1904 32.4431 19.6737 32.0763ZM33.4282 28.8518C33.0184 28.8518 32.6252 29.0144 32.3355 29.3037C32.0457 29.593 31.8828 29.9855 31.8828 30.3946V32.3386C31.8828 32.7663 32.0529 33.1764 32.3559 33.4786C32.6586 33.781 33.0694 33.9509 33.4978 33.9509C33.9262 33.9509 34.337 33.781 34.6397 33.4786C34.9426 33.1764 35.1128 32.7663 35.1128 32.3386V30.4718C35.1248 30.2505 35.089 30.0293 35.0077 29.8231C34.9264 29.617 34.8017 29.4306 34.6417 29.277C34.4819 29.1233 34.2908 29.0057 34.0815 28.9323C33.8721 28.859 33.6492 28.8316 33.4282 28.8518ZM12.9355 36.3038C12.3794 36.2871 11.8411 36.1044 11.3901 35.7792V46.9649C11.3901 47.3946 11.561 47.8067 11.8654 48.1105C12.1697 48.4143 12.5824 48.5849 13.0128 48.5849C13.4432 48.5849 13.8559 48.4143 14.1602 48.1105C14.4646 47.8067 14.6355 47.3946 14.6355 46.9649V35.8563C14.1309 36.182 13.5354 36.3388 12.9355 36.3038ZM28.3901 25.5038C28.1807 25.4933 27.9714 25.5255 27.7748 25.5983C27.5784 25.6712 27.3988 25.7832 27.2469 25.9274C27.0951 26.0718 26.9744 26.2454 26.8919 26.4378C26.8095 26.6302 26.767 26.8374 26.7673 27.0466V35.6403C26.7673 36.07 26.9383 36.4821 27.2426 36.7859C27.547 37.0897 27.9597 37.2603 28.3901 37.2603C28.8205 37.2603 29.2333 37.0897 29.5376 36.7859C29.8419 36.4821 30.0128 36.07 30.0128 35.6403V27.1546C30.0252 26.932 29.989 26.7094 29.9068 26.502C29.8246 26.2946 29.6984 26.1075 29.5368 25.9535C29.3751 25.7995 29.1821 25.6823 28.9708 25.6101C28.7596 25.5377 28.535 25.5119 28.3128 25.5346L28.3901 25.5038ZM23.2592 28.8055C22.677 28.8015 22.1104 28.6183 21.6364 28.2809V39.4975C21.6364 39.9272 21.8074 40.3393 22.1117 40.6431C22.4161 40.9468 22.8287 41.1175 23.2592 41.1175C23.6896 41.1175 24.1022 40.9468 24.4067 40.6431C24.711 40.3393 24.8819 39.9272 24.8819 39.4975V28.2963C24.3917 28.6609 23.7931 28.851 23.1819 28.8363L23.2592 28.8055ZM9.42734 37.3992V6.06376C9.42327 5.6818 9.26842 5.31688 8.99642 5.04822C8.72442 4.77957 8.35724 4.62889 7.97461 4.62891H7.63461C7.25199 4.62889 6.8848 4.77957 6.6128 5.04822C6.3408 5.31688 6.18595 5.6818 6.18188 6.06376V37.3992C6.18188 37.7838 6.33495 38.1527 6.60738 38.4247C6.87981 38.6967 7.24933 38.8495 7.63461 38.8495H7.97461C8.35991 38.8495 8.72941 38.6967 9.00184 38.4247C9.27429 38.1527 9.42734 37.7838 9.42734 37.3992ZM13.1055 35.1158H12.7655C12.3802 35.1158 12.0107 34.963 11.7383 34.691C11.4659 34.419 11.3128 34.0501 11.3128 33.6655V9.79748C11.3169 9.41553 11.4717 9.05058 11.7437 8.78194C12.0157 8.51328 12.3829 8.36261 12.7655 8.36262H13.1055C13.4881 8.36261 13.8553 8.51328 14.1273 8.78194C14.3993 9.05058 14.5542 9.41553 14.5582 9.79748V33.6963C14.5582 34.081 14.4052 34.4499 14.1328 34.7219C13.8603 34.9939 13.4908 35.1466 13.1055 35.1466V35.1158ZM18.221 31.4438H17.8655C17.4844 31.4438 17.1188 31.2926 16.8492 31.0235C16.5797 30.7544 16.4282 30.3895 16.4282 30.0089V13.5003C16.4262 13.3106 16.4619 13.1224 16.5332 12.9465C16.6044 12.7706 16.71 12.6106 16.8437 12.4758C16.9773 12.3409 17.1365 12.2338 17.3119 12.1607C17.4873 12.0877 17.6754 12.05 17.8655 12.05H18.221C18.6036 12.0541 18.9691 12.2087 19.2382 12.4802C19.5074 12.7518 19.6582 13.1184 19.6582 13.5003V30.0089C19.6582 30.3895 19.5068 30.7544 19.2373 31.0235C18.9677 31.2926 18.6022 31.4438 18.221 31.4438ZM23.3364 27.6638H23.0119C22.6292 27.6638 22.262 27.5132 21.99 27.2444C21.718 26.9758 21.5632 26.6109 21.5592 26.2289V17.342C21.5465 17.1439 21.5746 16.9454 21.642 16.7585C21.7092 16.5719 21.8143 16.4008 21.9505 16.2562C22.0866 16.1115 22.2511 15.9964 22.4337 15.9177C22.6162 15.8392 22.813 15.7987 23.0119 15.7992H23.3519C23.7372 15.7992 24.1067 15.9519 24.3792 16.2239C24.6516 16.4959 24.8046 16.8648 24.8046 17.2495V26.198C24.8066 26.3898 24.7706 26.5801 24.6984 26.7578C24.6264 26.9355 24.5198 27.0972 24.3846 27.2336C24.2495 27.3698 24.0888 27.478 23.9113 27.5519C23.7341 27.6258 23.544 27.6638 23.3519 27.6638H23.3364ZM28.4673 24.3466H28.1273C27.7421 24.3466 27.3725 24.1939 27.1001 23.9219C26.8276 23.6499 26.6746 23.281 26.6746 22.8963V20.5975C26.6786 20.2155 26.8335 19.8506 27.1055 19.582C27.3775 19.3132 27.7447 19.1626 28.1273 19.1626H28.4673C28.85 19.1626 29.2172 19.3132 29.4892 19.582C29.7612 19.8506 29.916 20.2155 29.9201 20.5975V22.8963C29.9201 23.2783 29.7692 23.6449 29.5 23.9165C29.2309 24.188 28.8654 24.3426 28.4828 24.3466H28.4673Z" fill="#394149"/>
</g>
</svg>
