<svg width="235" height="29" viewBox="0 0 235 29" fill="none" xmlns="http://www.w3.org/2000/svg">
<g opacity="0.7">
<path d="M117.025 24.992H109.11V4.09976H117.025V24.992ZM109.883 24.2288H116.252V4.86292H109.883V24.2288ZM128.039 24.992H120.283V4.09976H136.489C138.81 3.91416 141.122 4.55761 143.004 5.91302C143.814 6.6446 144.442 7.55105 144.838 8.56162C145.235 9.57221 145.39 10.6596 145.29 11.739C145.406 13.6041 144.805 15.4436 143.607 16.8903C142.189 18.496 139.83 19.3232 136.595 19.3522C135.781 19.3736 129.675 19.3522 128.044 19.3522L128.039 24.992ZM121.051 24.2288H127.266V18.5814H127.654C127.733 18.5814 135.66 18.6059 136.577 18.5814C139.59 18.5555 141.756 17.8183 143.022 16.379C144.089 15.0701 144.618 13.4136 144.506 11.7374C144.602 10.7703 144.47 9.79458 144.121 8.88589C143.773 7.9772 143.217 7.15998 142.497 6.4976C140.752 5.26144 138.618 4.68118 136.478 4.86139H121.056L121.051 24.2288ZM134.847 14.6588H127.214V8.97176H134.898C135.442 8.89746 135.997 8.96022 136.511 9.1542C137.024 9.34819 137.48 9.66712 137.835 10.0814C138.158 10.6109 138.31 11.2246 138.271 11.8412C138.3 12.4138 138.175 12.9836 137.908 13.4927C137.541 13.929 137.067 14.2649 136.531 14.4681C135.995 14.6713 135.415 14.7348 134.847 14.6527V14.6588ZM127.987 13.8957H134.847C136.114 13.8957 136.9 13.6347 137.248 13.0974C137.439 12.7069 137.526 12.2743 137.5 11.8412C137.534 11.3865 137.434 10.9318 137.212 10.5317L137.203 10.5179C136.835 9.98371 136.104 9.73492 134.898 9.73492H127.987V13.8957ZM159.398 25.3003C152.456 25.3003 148.313 23.5984 146.734 20.0986C146.476 19.4226 146.301 18.7185 146.212 18.0014L146.144 17.5619H154.403L154.457 17.8824C154.52 18.2078 154.661 18.5141 154.865 18.7768C155.191 19.166 156.28 19.8193 159.891 19.8193C164.233 19.8193 164.233 19.0668 164.233 18.6623C164.233 17.9801 163.73 17.7465 160.19 17.3741L159.517 17.3115C158.184 17.1879 156.499 17.0307 155.729 16.9651C149.236 16.3851 146.337 14.3932 146.337 10.5088C146.337 6.42892 151.27 3.79297 158.906 3.79297C165.135 3.79297 169.149 5.41392 170.833 8.6146C171.232 9.35911 171.501 10.1653 171.626 10.9987L171.68 11.4276H163.412L163.378 11.0827C163.345 10.8131 163.229 10.5602 163.044 10.3592C162.734 9.95013 161.757 9.27397 158.724 9.27397C155 9.27397 154.486 9.74407 154.486 10.2508C154.486 10.927 155.663 11.1666 159.434 11.565C161.006 11.6917 163.534 11.9481 164.399 12.0519C169.843 12.6349 172.272 14.5779 172.272 18.354C172.274 21.5211 170.039 25.3003 159.398 25.3003ZM147.047 18.325C147.124 18.8284 147.257 19.3217 147.444 19.7964C148.882 22.9849 152.793 24.5371 159.398 24.5371C164.921 24.5371 171.505 23.4687 171.505 18.354C171.505 15.0068 169.356 13.3492 164.318 12.8104C163.452 12.7067 160.939 12.4518 159.37 12.3235C155.35 11.8931 153.716 11.6642 153.716 10.2508C153.716 8.7886 155.477 8.51081 158.727 8.51081C161.295 8.51081 162.954 8.96871 163.657 9.89213C163.849 10.1196 163.994 10.382 164.084 10.6644H170.785C170.65 10.0741 170.437 9.50397 170.151 8.96871C168.605 6.03971 164.828 4.55613 158.909 4.55613C151.744 4.55613 147.113 6.89292 147.113 10.5088C147.113 13.9582 149.712 15.6616 155.8 16.205C156.573 16.2706 158.257 16.4278 159.593 16.553L160.27 16.6155C163.558 16.9574 165.009 17.1711 165.009 18.6623C165.009 20.268 163.133 20.5824 159.894 20.5824C156.898 20.5824 155.006 20.1383 154.274 19.2637C154.049 18.9848 153.879 18.6663 153.773 18.325H147.047ZM186.96 25.2743C178.889 25.2743 174.436 22.0523 174.436 16.2004V4.09976H182.247V16.2004C182.247 18.2075 184.067 19.3583 187.238 19.3583C190.268 19.3583 192.15 18.1571 192.15 16.2263V4.09976H199.88V16.8414C199.888 22.2003 195.174 25.2743 186.955 25.2743H186.96ZM175.21 4.86292V16.2004C175.21 23.4321 182.566 24.5112 186.96 24.5112C191.502 24.5112 199.119 23.5145 199.119 16.8414V4.86292H192.935V16.2263C192.935 18.5921 190.702 20.1215 187.25 20.1215C183.642 20.1215 181.486 18.6562 181.486 16.2004V4.86292H175.21ZM232.638 24.992H225.266V15.5593L221.086 24.992H214.655L210.518 15.5777V24.992H203.12V4.09976H212.851L217.907 15.6189L223.207 4.09976H232.647L232.638 24.992ZM226.039 24.2288H231.865V4.86292H223.698L217.882 17.4993L212.338 4.86292H203.887V24.2288H209.739V11.9053L215.15 24.2334H220.561L226.03 11.9237L226.039 24.2288ZM9.3598 4.48134H2.31908V24.6104H21.7746V19.2515H9.3598V4.48134ZM35.9859 4.02344C26.9987 4.02344 22.2724 8.22844 22.2724 14.4024C22.2724 21.3777 27.2337 24.9157 35.9859 24.9157C45.6209 24.9157 49.6731 20.8129 49.6731 14.4024C49.6731 7.89265 45.1014 4.02039 35.9859 4.02039V4.02344ZM35.9596 9.25413C36.5714 9.25129 37.1829 9.28645 37.7902 9.35944L29.9192 17.1299C29.5468 16.2982 29.3651 15.3954 29.3874 14.4863C29.3874 11.3284 30.9984 9.25107 35.9596 9.25107V9.25413ZM35.9859 19.7674C35.3964 19.77 34.8074 19.7373 34.2219 19.6697L42.1067 11.8855C42.4653 12.7034 42.6369 13.5894 42.6092 14.4802C42.6092 17.5527 41.125 19.7643 35.9859 19.7643V19.7674ZM63.6232 17.02H70.8695C70.7628 17.5165 70.5405 17.9816 70.2202 18.3784C68.7179 19.5867 66.8006 20.1746 64.8693 20.0192C63.8971 20.122 62.9141 20.0171 61.9867 19.7118C61.0592 19.4067 60.2089 18.9082 59.4936 18.2502C58.761 17.1893 58.413 15.9151 58.5057 14.6344C58.3871 13.2924 58.7656 11.9534 59.5709 10.8659C60.5836 9.73644 62.2982 9.24955 64.8183 9.24955C66.4217 9.11848 68.0231 9.52502 69.3637 10.4034C69.7862 10.7348 70.102 11.1802 70.2727 11.6855H76.9934C76.9446 10.8529 76.7417 10.0361 76.3951 9.2755C74.7857 6.04428 71.0442 4.12113 64.6822 4.12113C59.1489 4.12113 55.4353 5.78786 53.3836 8.30171C52.0287 10.117 51.3331 12.3303 51.4093 14.584C51.3217 16.8888 51.9993 19.1585 53.3388 21.048C55.3657 23.6427 58.9757 24.9187 63.3139 24.9187C66.1981 25.1173 69.0626 24.3198 71.4168 22.6628L71.5992 24.6104H77.182V12.6868H63.6232V17.02ZM93.0275 4.01886C84.0419 4.01886 79.314 8.22386 79.314 14.3978C79.314 21.3731 84.2738 24.9111 93.0275 24.9111C102.664 24.9111 106.716 20.8083 106.716 14.3978C106.716 7.89265 102.145 4.02039 93.0275 4.02039V4.01886ZM93.0028 9.24955C93.5985 9.24781 94.1937 9.28145 94.7854 9.35028L86.9454 17.0948C86.5845 16.2723 86.4089 15.3824 86.4305 14.4863C86.4243 11.3284 88.0415 9.24955 93.0028 9.24955ZM93.0275 19.7628C92.4224 19.7654 91.8177 19.7306 91.2171 19.659L99.1282 11.8473C99.5004 12.6762 99.6785 13.5771 99.6493 14.4833C99.6524 17.5527 98.1743 19.7643 93.0275 19.7643V19.7628Z" fill="#394149"/>
</g>
</svg>
