<svg width="529" height="145" viewBox="0 0 529 145" fill="none" xmlns="http://www.w3.org/2000/svg">
<path d="M37.6183 60.3323C25.0848 60.3323 2.06897 76.096 2.06897 76.096V144.931H527.931V23.5503C527.931 23.5503 505.797 33.179 495.735 29.8558C481.552 25.1712 468.235 2.68961 459.515 2.00643C446.1 0.95537 450.125 7.78658 422.624 7.78656C396.466 7.78654 408.229 21.4484 382.38 21.4484C368.227 21.4484 347.501 33.0115 347.501 33.0115H306.586C287.135 33.0115 283.169 67.0015 261.646 64.5389C240.785 62.1521 241.524 56.6541 224.755 56.6541C208.355 56.6541 205.828 64.6957 189.206 62.9596C169.084 60.8577 169.755 38.2631 142.254 38.2631C108.717 38.2631 102.68 66.1123 75.8506 68.2141C56.1525 69.7573 59.251 60.3323 37.6183 60.3323Z" fill="url(#paint0_linear_430_702)"/>
<path d="M2.06897 76.5691C2.06897 76.5691 25.0848 60.7933 37.6183 60.7933C59.251 60.7933 56.1525 70.2255 75.8506 68.6812C102.68 66.5777 108.717 38.707 142.254 38.707C169.755 38.707 169.084 61.3191 189.206 63.4226C205.828 65.1601 208.355 57.1122 224.755 57.1122C241.524 57.1122 240.785 62.6145 261.646 65.0032C283.17 67.4676 287.135 33.4514 306.586 33.4514C322.991 33.4514 347.501 33.4514 347.501 33.4514C347.501 33.4514 368.227 21.8795 382.38 21.8795C408.229 21.8795 396.466 8.20704 422.624 8.20706C450.125 8.20708 446.101 1.37061 459.515 2.42248C468.235 3.10619 481.552 25.6051 495.735 30.2933C505.797 33.619 527.931 23.9829 527.931 23.9829" stroke="#3848DA" stroke-width="4"/>
<defs>
<linearGradient id="paint0_linear_430_702" x1="339.147" y1="24.5086" x2="340.1" y2="262.211" gradientUnits="userSpaceOnUse">
<stop stop-color="#3741D8" stop-opacity="0.41"/>
<stop offset="1" stop-color="#3BB0F2" stop-opacity="0.21"/>
</linearGradient>
</defs>
</svg>
