<svg width="25" height="20" viewBox="0 0 25 20" fill="none" xmlns="http://www.w3.org/2000/svg">
<path id="Vector" d="M24.4 2.39613C23.498 2.79671 22.5441 3.06152 21.568 3.18232C22.5978 2.55254 23.3696 1.56178 23.74 0.393828C22.7723 0.983542 21.7129 1.39903 20.608 1.62224C19.8695 0.802363 18.886 0.25661 17.8118 0.0705742C16.7376 -0.115462 15.6335 0.0687402 14.6726 0.594292C13.7117 1.11984 12.9483 1.95702 12.5023 2.97451C12.0563 3.99201 11.9528 5.13228 12.208 6.21649C10.2513 6.11517 8.33735 5.59363 6.59041 4.68572C4.84347 3.77781 3.30264 2.50386 2.06802 0.946612C1.63499 1.72072 1.40745 2.59738 1.40802 3.48942C1.40649 4.31784 1.60509 5.13379 1.98613 5.86463C2.36718 6.59546 2.91885 7.21851 3.59202 7.67829C2.8096 7.6565 2.04389 7.44158 1.36002 7.0518V7.11322C1.36589 8.27394 1.76322 9.39695 2.4848 10.2923C3.20639 11.1877 4.20793 11.8004 5.32002 12.0269C4.89193 12.1602 4.44747 12.2305 4.00002 12.2357C3.69029 12.232 3.38133 12.2032 3.07602 12.1497C3.39272 13.1482 4.00557 14.0207 4.82931 14.646C5.65306 15.2713 6.64672 15.6182 7.67203 15.6384C5.94067 17.033 3.80308 17.7941 1.60002 17.8004C1.19891 17.8017 0.798107 17.7771 0.400024 17.7267C2.64934 19.2134 5.2706 20.0026 7.94802 19.9992C9.79566 20.0189 11.6286 19.6614 13.3398 18.9478C15.0509 18.2342 16.6061 17.1787 17.9143 15.8429C19.2225 14.5072 20.2576 12.9179 20.9591 11.1681C21.6606 9.41824 22.0145 7.54283 22 5.65142C22 5.44259 22 5.22147 22 5.00036C22.9417 4.28151 23.7538 3.40027 24.4 2.39613Z" fill="#FFB546"/>
</svg>
