<svg width="29" height="20" viewBox="0 0 29 20" fill="none" xmlns="http://www.w3.org/2000/svg">
<path id="Vector" d="M28.3936 7.04863C28.4565 5.198 28.0583 3.36122 27.2361 1.70884C26.6783 1.03083 25.9041 0.573275 25.0484 0.415913C21.5093 0.0894815 17.9556 -0.0443119 14.4024 0.0151056C10.8622 -0.0470087 7.32123 0.0824673 3.79456 0.402984C3.09731 0.53191 2.45206 0.864354 1.93755 1.35975C0.792815 2.43288 0.665622 4.26884 0.53843 5.82035C0.353889 8.60992 0.353889 11.4089 0.53843 14.1985C0.575227 15.0718 0.703136 15.9386 0.920007 16.7844C1.07337 17.4374 1.38365 18.0415 1.82307 18.5427C2.34109 19.0644 3.00136 19.4157 3.71824 19.5512C6.4604 19.8953 9.22341 20.0379 11.9858 19.9779C16.4375 20.0425 20.3423 19.9779 24.9594 19.6159C25.6939 19.4887 26.3727 19.1369 26.9054 18.6074C27.2615 18.2453 27.5275 17.802 27.6813 17.3145C28.1362 15.8956 28.3596 14.4107 28.3427 12.9185C28.3936 12.1945 28.3936 7.82438 28.3936 7.04863ZM11.5279 13.6943V5.69105L19.0576 9.71206C16.9463 10.9016 14.1607 12.2462 11.5279 13.6943Z" fill="#FFB546"/>
</svg>
